<svg width="1024" height="1024" viewBox="0 0 1024 1024" fill="none" xmlns="http://www.w3.org/2000/svg">
  <defs>
    <linearGradient id="base" x1="134" y1="84" x2="884" y2="924" gradientUnits="userSpaceOnUse">
      <stop offset="0" stop-color="#FFFDF7"/>
      <stop offset="0.52" stop-color="#F4F0E6"/>
      <stop offset="1" stop-color="#E8EDF1"/>
    </linearGradient>
    <linearGradient id="outerFrame" x1="198" y1="234" x2="812" y2="742" gradientUnits="userSpaceOnUse">
      <stop offset="0" stop-color="#4D6174"/>
      <stop offset="0.62" stop-color="#324353"/>
      <stop offset="1" stop-color="#243241"/>
    </linearGradient>
    <linearGradient id="paper" x1="236" y1="276" x2="792" y2="692" gradientUnits="userSpaceOnUse">
      <stop offset="0" stop-color="#FFFFFF"/>
      <stop offset="0.68" stop-color="#FFFDF8"/>
      <stop offset="1" stop-color="#EEE8DD"/>
    </linearGradient>
    <linearGradient id="photo" x1="334" y1="384" x2="700" y2="558" gradientUnits="userSpaceOnUse">
      <stop offset="0" stop-color="#FFFDF8"/>
      <stop offset="0.58" stop-color="#F6F0E6"/>
      <stop offset="1" stop-color="#E8EEF2"/>
    </linearGradient>
    <linearGradient id="blue" x1="336" y1="724" x2="434" y2="828" gradientUnits="userSpaceOnUse">
      <stop offset="0" stop-color="#7DBAF4"/>
      <stop offset="0.52" stop-color="#3F93E5"/>
      <stop offset="1" stop-color="#1F6FC8"/>
    </linearGradient>
    <filter id="baseShadow" x="-60" y="-40" width="1144" height="1144" filterUnits="userSpaceOnUse" color-interpolation-filters="sRGB">
      <feDropShadow dx="0" dy="30" stdDeviation="42" flood-color="#1F2937" flood-opacity="0.26"/>
    </filter>
    <filter id="frameShadow" x="112" y="184" width="800" height="612" filterUnits="userSpaceOnUse" color-interpolation-filters="sRGB">
      <feDropShadow dx="0" dy="18" stdDeviation="24" flood-color="#142033" flood-opacity="0.24"/>
    </filter>
    <filter id="blueShadow" x="298" y="686" width="168" height="168" filterUnits="userSpaceOnUse" color-interpolation-filters="sRGB">
      <feDropShadow dx="0" dy="7" stdDeviation="11" flood-color="#176BC1" flood-opacity="0.28"/>
    </filter>
  </defs>

  <rect x="42" y="42" width="940" height="940" rx="220" fill="#F6F3EA" filter="url(#baseShadow)"/>
  <rect x="42" y="42" width="940" height="940" rx="220" fill="url(#base)"/>
  <rect x="52" y="52" width="920" height="920" rx="210" stroke="#FFFFFF" stroke-opacity="0.82" stroke-width="16"/>
  <rect x="72" y="74" width="880" height="876" rx="190" stroke="#CFC7BA" stroke-opacity="0.36" stroke-width="6"/>

  <g filter="url(#frameShadow)">
    <rect x="160" y="220" width="704" height="508" rx="88" fill="url(#outerFrame)"/>
    <rect x="218" y="276" width="588" height="392" rx="62" fill="url(#paper)"/>
    <rect x="288" y="344" width="448" height="250" rx="40" stroke="#2B3B4D" stroke-width="35"/>
    <rect x="326" y="382" width="372" height="174" rx="20" fill="url(#photo)"/>
    <rect x="358" y="514" width="184" height="22" rx="11" fill="#2B3B4D" fill-opacity="0.92"/>
    <rect x="568" y="514" width="92" height="22" rx="11" fill="#D59A3A" fill-opacity="0.82"/>
  </g>

  <g filter="url(#blueShadow)">
    <circle cx="382" cy="774" r="54" fill="url(#blue)"/>
    <circle cx="382" cy="774" r="46" stroke="#FFFFFF" stroke-opacity="0.40" stroke-width="8"/>
    <ellipse cx="379" cy="754" rx="19" ry="14" fill="#FFFFFF" fill-opacity="0.30"/>
  </g>

  <rect x="486" y="754" width="206" height="26" rx="13" fill="#2B3B4D" fill-opacity="0.90"/>
  <rect x="486" y="800" width="122" height="18" rx="9" fill="#D59A3A" fill-opacity="0.76"/>
</svg>
