<svg width="1024" height="1024" viewBox="0 0 1024 1024" fill="none" xmlns="http://www.w3.org/2000/svg">
  <defs>
    <linearGradient id="base" x1="198" y1="118" x2="844" y2="902" gradientUnits="userSpaceOnUse">
      <stop stop-color="#FFFDF8"/>
      <stop offset="0.58" stop-color="#F8F6F0"/>
      <stop offset="1" stop-color="#ECEFF3"/>
    </linearGradient>
    <linearGradient id="paper" x1="286" y1="246" x2="737" y2="695" gradientUnits="userSpaceOnUse">
      <stop stop-color="#FFFFFF"/>
      <stop offset="0.72" stop-color="#FFFDF8"/>
      <stop offset="1" stop-color="#F3F0E8"/>
    </linearGradient>
    <linearGradient id="ink" x1="304" y1="250" x2="717" y2="706" gradientUnits="userSpaceOnUse">
      <stop stop-color="#405061"/>
      <stop offset="1" stop-color="#263341"/>
    </linearGradient>
    <linearGradient id="blue" x1="362" y1="708" x2="430" y2="778" gradientUnits="userSpaceOnUse">
      <stop stop-color="#5FA0E8"/>
      <stop offset="0.58" stop-color="#3F86D6"/>
      <stop offset="1" stop-color="#2B6FBE"/>
    </linearGradient>
    <filter id="baseShadow" x="-80" y="-40" width="1184" height="1120" filterUnits="userSpaceOnUse" color-interpolation-filters="sRGB">
      <feDropShadow dx="0" dy="22" stdDeviation="24" flood-color="#182231" flood-opacity="0.18"/>
      <feDropShadow dx="0" dy="3" stdDeviation="4" flood-color="#FFFFFF" flood-opacity="0.9"/>
    </filter>
    <filter id="frameShadow" x="220" y="206" width="584" height="530" filterUnits="userSpaceOnUse" color-interpolation-filters="sRGB">
      <feDropShadow dx="0" dy="13" stdDeviation="16" flood-color="#1A2530" flood-opacity="0.18"/>
      <feDropShadow dx="0" dy="2" stdDeviation="3" flood-color="#FFFFFF" flood-opacity="0.65"/>
    </filter>
    <filter id="softLineShadow" x="480" y="706" width="216" height="56" filterUnits="userSpaceOnUse" color-interpolation-filters="sRGB">
      <feDropShadow dx="0" dy="5" stdDeviation="6" flood-color="#1A2530" flood-opacity="0.16"/>
    </filter>
    <filter id="blueShadow" x="326" y="668" width="132" height="132" filterUnits="userSpaceOnUse" color-interpolation-filters="sRGB">
      <feDropShadow dx="0" dy="7" stdDeviation="9" flood-color="#1E5DA8" flood-opacity="0.18"/>
      <feDropShadow dx="0" dy="2" stdDeviation="2" flood-color="#FFFFFF" flood-opacity="0.55"/>
    </filter>
  </defs>

  <rect x="72" y="56" width="880" height="856" rx="198" fill="url(#base)" filter="url(#baseShadow)"/>
  <rect x="76" y="60" width="872" height="848" rx="194" stroke="#FFFFFF" stroke-opacity="0.74" stroke-width="18"/>
  <rect x="92" y="82" width="840" height="820" rx="174" stroke="#D8D5CC" stroke-opacity="0.34" stroke-width="10"/>

  <g filter="url(#frameShadow)">
    <rect x="259" y="248" width="506" height="396" rx="57" fill="url(#ink)"/>
    <rect x="299" y="292" width="427" height="310" rx="37" fill="url(#paper)"/>
    <rect x="352.5" y="346.5" width="319" height="209" rx="26" stroke="#2F4051" stroke-width="30"/>
    <rect x="385.5" y="378.5" width="253" height="144" rx="12" fill="#FFFDF8"/>
    <rect x="418.5" y="485" width="187" height="20" rx="10" fill="#2D3D4D"/>
  </g>

  <g filter="url(#softLineShadow)">
    <rect x="504" y="724" width="168" height="20" rx="10" fill="#2D3D4D"/>
  </g>

  <g filter="url(#blueShadow)">
    <circle cx="392" cy="734" r="48" fill="url(#blue)"/>
    <circle cx="392" cy="734" r="42" stroke="#2D72CC" stroke-width="7" stroke-opacity="0.38"/>
    <ellipse cx="392" cy="720.5" rx="16" ry="12.5" fill="#FFFFFF" fill-opacity="0.28"/>
  </g>
</svg>
