<svg xmlns="http://www.w3.org/2000/svg" width="220" height="220" viewBox="0 0 220 220">
  <rect width="220" height="220" fill="#FFFDF8"/>
  <g fill="none" stroke="#D9CFC0" stroke-width="2.2" stroke-linecap="round" opacity="0.46">
    <path d="M18 29c22-22 58-6 54 23-4 25-37 31-49 10-10-18 8-40 29-33 16 5 20 27 5 36-11 6-24-3-20-15"/>
    <path d="M112 12c24-14 53 7 44 33-8 24-42 22-49 1-5-17 14-32 29-22 10 7 7 24-6 27"/>
    <path d="M183 23c26-5 45 24 29 47-14 21-47 11-48-13-1-19 23-27 35-13 8 10 1 25-12 25"/>
    <path d="M33 91c29-16 64 14 49 45-13 27-54 23-63-6-7-23 19-43 40-29 15 10 10 34-8 39"/>
    <path d="M127 83c32-18 70 15 52 48-16 30-60 23-68-9-6-26 25-46 47-28 16 13 7 40-14 42"/>
    <path d="M10 174c18-27 61-17 65 15 3 26-29 43-50 27-16-12-11-37 7-43"/>
    <path d="M88 169c23-26 70-10 72 25 1 30-37 47-61 27-18-16-10-45 14-51 17-4 34 13 28 30"/>
    <path d="M178 161c26-18 63 8 52 38-9 26-46 27-56 2-8-20 12-41 32-32 13 6 15 25 1 32"/>
  </g>
  <g fill="none" stroke="#E8DFD2" stroke-width="1.6" stroke-linecap="round" opacity="0.55">
    <path d="M8 57c15 4 31 3 47-4"/>
    <path d="M78 58c21 8 46 7 67-2"/>
    <path d="M150 68c23 7 43 5 63-6"/>
    <path d="M4 126c26 9 53 8 79-4"/>
    <path d="M92 146c29 9 59 7 87-6"/>
    <path d="M22 207c28 8 59 6 86-7"/>
    <path d="M136 214c27 6 53 4 77-7"/>
  </g>
</svg>
