<svg xmlns="http://www.w3.org/2000/svg" width="240" height="240" viewBox="0 0 240 240">
  <g fill="none" stroke="#356F80" stroke-width="1.1" stroke-opacity="0.065" stroke-linecap="square" stroke-linejoin="miter">
    <path d="M0 0h36v36H12V12h14v14h-7v-7h4M48 48H12V12h24v24H22V22h7v7h-4" transform="translate(0 0)"/>
    <path d="M0 0h36v36H12V12h14v14h-7v-7h4M48 48H12V12h24v24H22V22h7v7h-4" transform="translate(60 0)"/>
    <path d="M0 0h36v36H12V12h14v14h-7v-7h4M48 48H12V12h24v24H22V22h7v7h-4" transform="translate(120 0)"/>
    <path d="M0 0h36v36H12V12h14v14h-7v-7h4M48 48H12V12h24v24H22V22h7v7h-4" transform="translate(180 0)"/>
    <path d="M0 0h36v36H12V12h14v14h-7v-7h4M48 48H12V12h24v24H22V22h7v7h-4" transform="translate(0 60)"/>
    <path d="M0 0h36v36H12V12h14v14h-7v-7h4M48 48H12V12h24v24H22V22h7v7h-4" transform="translate(60 60)"/>
    <path d="M0 0h36v36H12V12h14v14h-7v-7h4M48 48H12V12h24v24H22V22h7v7h-4" transform="translate(120 60)"/>
    <path d="M0 0h36v36H12V12h14v14h-7v-7h4M48 48H12V12h24v24H22V22h7v7h-4" transform="translate(180 60)"/>
    <path d="M0 0h36v36H12V12h14v14h-7v-7h4M48 48H12V12h24v24H22V22h7v7h-4" transform="translate(0 120)"/>
    <path d="M0 0h36v36H12V12h14v14h-7v-7h4M48 48H12V12h24v24H22V22h7v7h-4" transform="translate(60 120)"/>
    <path d="M0 0h36v36H12V12h14v14h-7v-7h4M48 48H12V12h24v24H22V22h7v7h-4" transform="translate(120 120)"/>
    <path d="M0 0h36v36H12V12h14v14h-7v-7h4M48 48H12V12h24v24H22V22h7v7h-4" transform="translate(180 120)"/>
    <path d="M0 0h36v36H12V12h14v14h-7v-7h4M48 48H12V12h24v24H22V22h7v7h-4" transform="translate(0 180)"/>
    <path d="M0 0h36v36H12V12h14v14h-7v-7h4M48 48H12V12h24v24H22V22h7v7h-4" transform="translate(60 180)"/>
    <path d="M0 0h36v36H12V12h14v14h-7v-7h4M48 48H12V12h24v24H22V22h7v7h-4" transform="translate(120 180)"/>
    <path d="M0 0h36v36H12V12h14v14h-7v-7h4M48 48H12V12h24v24H22V22h7v7h-4" transform="translate(180 180)"/>
  </g>
</svg>
