<svg xmlns="http://www.w3.org/2000/svg" width="480" height="240" viewBox="0 0 480 240">
  <g fill="none" stroke="#356F80" stroke-linecap="square" stroke-linejoin="miter">
    <g>
      <path d="M12 42V12H42" stroke-width="1.25" stroke-opacity="0.12"/>
      <path d="M18 42V18H36V24H26V36H21V28H32V33H29V31" stroke-width="1.1" stroke-opacity="0.11"/>
      <path d="M32 12V21H39V16H35V18H37" stroke-width="1.05" stroke-opacity="0.1"/>
    </g>
    <g transform="translate(480 0) scale(-1 1)">
      <path d="M12 42V12H42" stroke-width="1.25" stroke-opacity="0.12"/>
      <path d="M18 42V18H36V24H26V36H21V28H32V33H29V31" stroke-width="1.1" stroke-opacity="0.11"/>
      <path d="M32 12V21H39V16H35V18H37" stroke-width="1.05" stroke-opacity="0.1"/>
    </g>
    <g transform="translate(0 240) scale(1 -1)">
      <path d="M12 42V12H42" stroke-width="1.25" stroke-opacity="0.12"/>
      <path d="M18 42V18H36V24H26V36H21V28H32V33H29V31" stroke-width="1.1" stroke-opacity="0.11"/>
      <path d="M32 12V21H39V16H35V18H37" stroke-width="1.05" stroke-opacity="0.1"/>
    </g>
    <g transform="translate(480 240) scale(-1 -1)">
      <path d="M12 42V12H42" stroke-width="1.25" stroke-opacity="0.12"/>
      <path d="M18 42V18H36V24H26V36H21V28H32V33H29V31" stroke-width="1.1" stroke-opacity="0.11"/>
      <path d="M32 12V21H39V16H35V18H37" stroke-width="1.05" stroke-opacity="0.1"/>
    </g>
  </g>
</svg>
